<?xml version="1.0" encoding="UTF-8" standalone="no"?><!DOCTYPE svg PUBLIC "-//W3C//DTD SVG 1.1//EN" "http://www.w3.org/Graphics/SVG/1.1/DTD/svg11.dtd"><svg width="100%" height="100%" viewBox="0 0 716 725" version="1.1" xmlns="http://www.w3.org/2000/svg" xmlns:xlink="http://www.w3.org/1999/xlink" xml:space="preserve" xmlns:serif="http://www.serif.com/" style="fill-rule:evenodd;clip-rule:evenodd;stroke-linejoin:round;stroke-miterlimit:1.41421;"><g><g><clipPath id="_clip1"><path d="M357.817,697.228l-357.817,-635.839l542.113,-321.11l357.817,635.838l-542.113,321.111Z"/></clipPath><g clip-path="url(#_clip1)"><clipPath id="_clip2"><rect x="-39.995" y="60.575" width="808.411" height="636.653"/></clipPath><g clip-path="url(#_clip2)"><clipPath id="_clip3"><path d="M422.084,206.54l-371.085,0l0,490.688l371.085,0l0,-490.688Z"/></clipPath><g clip-path="url(#_clip3)"><path d="M0,60.55l311.966,554.362l102.265,-60.574l-311.966,-554.362l-102.265,60.574Z"/></g><clipPath id="_clip4"><path d="M797.247,193.911l-227.702,-404.625l-418.436,247.853l227.702,404.624l418.436,-247.852Z"/></clipPath><g clip-path="url(#_clip4)"><rect x="137.386" y="60.575" width="497.505" height="121.149"/></g><path d="M342.327,724.102l373.399,-663.527l-102.265,-60.575l-373.399,663.527l102.265,60.575Z"/></g></g></g><g><clipPath id="_clip5"><rect x="-0.293" y="60.575" width="207.409" height="121.149"/></clipPath><g clip-path="url(#_clip5)"><clipPath id="_clip6"><path d="M105.731,248.434l-106.024,-188.405l101.384,-60.053l106.025,188.404l-101.385,60.054Z"/></clipPath><g clip-path="url(#_clip6)"><rect x="0" y="60.575" width="207.116" height="121.149" style="fill:#c02100;"/><path d="M205.622,181.724l-75.413,-134.008l-59.078,34.994l75.413,134.008l59.078,-34.994Z" style="fill:#c02100;"/></g></g></g></g></svg>